/vscmnt/brussel_pixiu_data/_data_brussel/112/vsc11236/PredSimResults/SUBJ11opt3D/weighted-expIG/worker_01.mot
version=1
nRows=8
nColumns=50
inDegrees=yes
endheader
                time	         pelvis_tilt	         pelvis_list	     pelvis_rotation	           pelvis_tx	           pelvis_ty	           pelvis_tz	       hip_flexion_r	     hip_adduction_r	      hip_rotation_r	        knee_angle_r	       ankle_angle_r	         mtp_angle_r	       hip_flexion_l	     hip_adduction_l	      hip_rotation_l	        knee_angle_l	       ankle_angle_l	         mtp_angle_l	    lumbar_extension	      lumbar_bending	     lumbar_rotation	 ercspn_r/activation	 intobl_r/activation	 extobl_r/activation	    abd_r/activation	    add_r/activation	hamstrings_r/activation	bifemsh_r/activation	glut_max_r/activation	iliopsoas_r/activation	rect_fem_r/activation	  vasti_r/activation	gastroc_r/activation	 soleus_r/activation	tib_ant_r/activation	 ercspn_l/activation	 intobl_l/activation	 extobl_l/activation	    abd_l/activation	    add_l/activation	hamstrings_l/activation	bifemsh_l/activation	glut_max_l/activation	iliopsoas_l/activation	rect_fem_l/activation	  vasti_l/activation	gastroc_l/activation	 soleus_l/activation	tib_ant_l/activation	
          2.00780654	         -3.03093388	          1.09758112	         -5.29512835	          2.20858719	          0.93988063	          0.00499584	        -14.43542406	         -3.16004247	         -2.16109774	        -11.19969034	         12.49170768	         29.26674582	         31.04173625	         -1.87713022	         -4.73285803	         -9.45805511	          1.64866736	          0.26341293	        -14.44139261	          1.94743648	          3.33871334	          0.01000001	          0.00999999	          0.00999999	          0.03774405	          0.05710624	          0.01525112	          0.23333874	          0.02237858	          0.21628887	          0.01000024	          0.01000000	          0.15242470	          0.31615490	          0.01483226	          0.02935672	          0.23645961	          0.06125359	          0.00999999	          0.23484004	          0.03356837	          0.16261029	          0.09001599	          0.09470898	          0.03745047	          0.01381922	          0.00999999	          0.00999999	          0.41729407	
          2.02119191	         -3.13647972	          1.15269283	         -5.47339964	          2.22713393	          0.93781946	          0.00398935	        -15.04076794	         -3.42255349	         -2.41077129	        -11.86386552	         11.63528051	         31.08355551	         30.88954260	         -1.75380508	         -4.74991469	        -10.89777055	          1.14109929	          0.21319817	        -14.01929490	          1.42788122	          3.54074179	          0.01915710	          0.00999999	          0.01223087	          0.03085959	          0.04669016	          0.02408789	          0.19077814	          0.01829677	          0.17683813	          0.01000000	          0.01000000	          0.12462268	          0.29323254	          0.01212688	          0.02400210	          0.19332976	          0.05008104	          0.02986975	          0.19200559	          0.05103902	          0.13295043	          0.12147414	          0.07743421	          0.03061957	          0.01129862	          0.01223089	          0.01223088	          0.46613931	
          2.03457729	         -3.22244656	          1.21100982	         -5.62492800	          2.24597105	          0.93616117	          0.00290672	        -15.48781525	         -3.69977108	         -2.67757038	        -12.84133145	         10.61323376	         32.97397413	         30.67141183	         -1.64467863	         -4.82915393	        -12.30218595	          0.56231246	          0.20169225	        -13.57606272	          0.90223179	          3.73220600	          0.03016224	          0.00999999	          0.00999999	          0.02523085	          0.03817395	          0.01969430	          0.15598051	          0.01495947	          0.17434586	          0.01000002	          0.01000000	          0.10189170	          0.26625629	          0.00999999	          0.02961854	          0.15806672	          0.04094633	          0.08452575	          0.23510012	          0.04516239	          0.10870049	          0.13449663	          0.06331033	          0.02503461	          0.00999999	          0.01000000	          0.00999999	          0.53139408	
          2.04796267	         -3.28844043	          1.25490612	         -5.74514434	          2.26482176	          0.93507053	          0.00174589	        -15.68810576	         -3.97401507	         -2.95456117	        -14.25010551	          9.40559047	         34.92361973	         30.51325695	         -1.56125995	         -4.99074801	        -13.82040429	         -0.09007734	          0.15955226	        -13.14584202	          0.39267241	          3.90788922	          0.06099671	          0.00999999	          0.00999999	          0.02062878	          0.07183220	          0.01690040	          0.12752992	          0.01223089	          0.14254552	          0.01000000	          0.01000000	          0.08330681	          0.23330032	          0.00999999	          0.03651402	          0.12923560	          0.03347779	          0.11685097	          0.29385425	          0.04342379	          0.08887369	          0.13603431	          0.05176263	          0.02046834	          0.04351251	          0.00999999	          0.00999999	          0.57618578	
          2.06134804	         -3.33386259	          1.28477724	         -5.83625725	          2.28356240	          0.93462344	          0.00052442	        -15.57692218	         -4.24785928	         -3.24002137	        -16.18572376	          8.02070415	         36.85321945	         30.41292539	         -1.49885684	         -5.19923709	        -15.51468163	         -0.44682763	          0.10818892	        -12.73857526	         -0.10020294	          4.06526732	          0.08727358	          0.00999999	          0.00999999	          0.01686613	          0.13846724	          0.01471970	          0.10426868	          0.00999999	          0.11654547	          0.01000000	          0.00999999	          0.06811178	          0.19074671	          0.00999999	          0.03318081	          0.10566323	          0.02737149	          0.14296728	          0.32987149	          0.04563859	          0.07266327	          0.14430025	          0.04232121	          0.01673495	          0.10016153	          0.00999999	          0.00999999	          0.58602460	
          2.07473342	         -3.36055077	          1.30114267	         -5.89604342	          2.30204854	          0.93491481	         -0.00072981	        -15.08334470	         -4.52263992	         -3.53949093	        -18.74668357	          6.47657240	         38.59240624	         30.29544989	         -1.44301245	         -5.40595763	        -17.25444115	         -0.41647394	          0.05969864	        -12.36545925	         -0.57767685	          4.19849646	          0.11123081	          0.00999999	          0.00999999	          0.01378977	          0.18026269	          0.02988958	          0.09082387	          0.00999999	          0.09528777	          0.00999999	          0.00999999	          0.05568830	          0.15595481	          0.00999999	          0.02712869	          0.08639042	          0.02237897	          0.15739540	          0.35203505	          0.04649316	          0.05940961	          0.15079577	          0.03460188	          0.01368252	          0.12820000	          0.00999999	          0.00999999	          0.55475412	
          2.08811880	         -3.36971308	          1.30309257	         -5.92311527	          2.32015635	          0.93594824	         -0.00198436	        -14.16321995	         -4.80029188	         -3.87793726	        -21.98921604	          4.84300934	         39.81764590	         30.11109218	         -1.38219684	         -5.56900903	        -18.94366138	          0.01919391	          0.03421096	        -12.03549862	         -1.04093085	          4.30318471	          0.11852958	          0.00999999	          0.00999999	          0.01127454	          0.21738798	          0.03967262	          0.07576128	          0.00999999	          0.07790743	          0.00999999	          0.00999999	          0.04553084	          0.12750890	          0.00999999	          0.02218046	          0.07063295	          0.01829709	          0.16495904	          0.36565831	          0.05036942	          0.04857340	          0.14063347	          0.02829056	          0.01118686	          0.15263333	          0.00999999	          0.00999999	          0.48301778	
          2.10150417	         -3.36262021	          1.28212441	         -5.91600719	          2.33782898	          0.93767329	         -0.00320378	        -12.80422485	         -5.08383852	         -4.28055496	        -25.94161926	          3.28309687	         40.00034516	         29.79214947	         -1.31257105	         -5.65742850	        -20.43882236	          0.77643286	          0.09517686	        -11.75134447	         -1.48383244	          4.37617271	          0.11096726	          0.00999999	          0.01000002	          0.00999999	          0.26336399	          0.04692624	          0.06194270	          0.00999999	          0.06369724	          0.00999999	          0.00999999	          0.03722609	          0.10425148	          0.00999999	          0.01813478	          0.05774961	          0.01495973	          0.16738802	          0.34920253	          0.05362981	          0.03971369	          0.12275007	          0.02313040	          0.01000000	          0.20344212	          0.01000000	          0.00999999	          0.39691275	
